<?xml version="1.0" encoding="UTF-8"?>
<svg version="1.1" xmlns="http://www.w3.org/2000/svg" width="800" height="800">
<path d="M0 0 C264 0 528 0 800 0 C800 264 800 528 800 800 C536 800 272 800 0 800 C0 536 0 272 0 0 Z " fill="#FEFEFE" transform="translate(0,0)"/>
<path d="M0 0 C0.98057373 0.31348389 0.98057373 0.31348389 1.98095703 0.63330078 C18.22731733 5.86836981 31.50484631 14.48787736 44 26 C44.50096191 26.45181641 45.00192383 26.90363281 45.51806641 27.36914062 C69.43445773 49.11555693 83.96247343 79.85458861 91.47265625 110.85351562 C91.92512421 112.69522779 92.4122997 114.52835232 92.90625 116.359375 C101.33373376 148.88946232 99.02564703 186.85319635 90 219 C89.82243164 219.65194336 89.64486328 220.30388672 89.46191406 220.97558594 C82.00439408 248.0007876 68.21437768 272.6380059 49 293 C48.26523437 293.81082031 47.53046875 294.62164063 46.7734375 295.45703125 C33.75123392 309.28495646 16.13855112 319.52038176 -2 325 C-3.45986328 325.44859375 -3.45986328 325.44859375 -4.94921875 325.90625 C-30.75319314 332.62960159 -57.56188424 326.75365642 -80.22216797 313.54907227 C-88.19328085 308.68828648 -94.99681934 302.94734695 -101.60400391 296.37695312 C-102.850486 295.14747446 -104.1321049 293.9538546 -105.41796875 292.765625 C-120.06480855 278.97426434 -130.29757008 260.39583777 -138 242 C-138.46792969 240.97003906 -138.93585938 239.94007813 -139.41796875 238.87890625 C-159.25242565 193.14238225 -158.51939103 134.48469193 -140.75 88.23828125 C-132.67085255 68.25477681 -122.66663313 49.87625235 -108 34 C-107.53368164 33.48985352 -107.06736328 32.97970703 -106.58691406 32.45410156 C-79.80806558 3.46971992 -38.78628742 -13.0644263 0 0 Z " fill="#FBFBFB" transform="translate(428,238)"/>
<path d="M0 0 C22.93652446 18.11326137 37.84073947 43.44917803 43.58203125 72.0390625 C43.86911038 73.41029906 44.1568784 74.78139156 44.4453125 76.15234375 C45.19531814 79.77448082 45.90708113 83.40207016 46.58203125 87.0390625 C46.75404053 87.93326904 46.9260498 88.82747559 47.10327148 89.7487793 C47.64950858 93.50280141 47.79848609 97.20261558 47.85546875 100.98828125 C47.86799683 101.75036896 47.8805249 102.51245667 47.89343262 103.29763794 C48.44438868 144.9840081 39.72672463 184.32263229 10.45703125 215.6015625 C-2.65871164 228.3341995 -19.00881836 235.3515625 -37.27050781 235.3515625 C-56.54553927 235.0121862 -71.34626056 225.28688652 -84.41796875 212.0390625 C-85.0728125 211.38292969 -85.72765625 210.72679687 -86.40234375 210.05078125 C-110.7841797 183.93537439 -118.87163543 145.97149412 -118.91796875 111.4140625 C-118.92236969 110.62425995 -118.92677063 109.8344574 -118.93130493 109.02072144 C-118.969937 92.43547894 -116.08711038 76.94276713 -111.41796875 61.0390625 C-111.13308594 60.04777344 -110.84820312 59.05648437 -110.5546875 58.03515625 C-102.97989831 33.50885646 -87.36009609 8.48545505 -64.21655273 -3.92480469 C-43.05957848 -14.6425769 -19.73278185 -13.76141776 0 0 Z " fill="#FDFDFD" transform="translate(435.41796875,287.9609375)"/>
<path d="M0 0 C0.98057373 0.31348389 0.98057373 0.31348389 1.98095703 0.63330078 C18.22731733 5.86836981 31.50484631 14.48787736 44 26 C44.50096191 26.45181641 45.00192383 26.90363281 45.51806641 27.36914062 C69.43445773 49.11555693 83.96247343 79.85458861 91.47265625 110.85351562 C91.92512421 112.69522779 92.4122997 114.52835232 92.90625 116.359375 C101.33373376 148.88946232 99.02564703 186.85319635 90 219 C89.82243164 219.65194336 89.64486328 220.30388672 89.46191406 220.97558594 C82.00439408 248.0007876 68.21437768 272.6380059 49 293 C48.26523437 293.81082031 47.53046875 294.62164063 46.7734375 295.45703125 C33.75123392 309.28495646 16.13855112 319.52038176 -2 325 C-3.45986328 325.44859375 -3.45986328 325.44859375 -4.94921875 325.90625 C-30.75319314 332.62960159 -57.56188424 326.75365642 -80.22216797 313.54907227 C-88.19328085 308.68828648 -94.99681934 302.94734695 -101.60400391 296.37695312 C-102.850486 295.14747446 -104.1321049 293.9538546 -105.41796875 292.765625 C-120.06480855 278.97426434 -130.29757008 260.39583777 -138 242 C-138.46792969 240.97003906 -138.93585938 239.94007813 -139.41796875 238.87890625 C-159.25242565 193.14238225 -158.51939103 134.48469193 -140.75 88.23828125 C-132.67085255 68.25477681 -122.66663313 49.87625235 -108 34 C-107.53368164 33.48985352 -107.06736328 32.97970703 -106.58691406 32.45410156 C-79.80806558 3.46971992 -38.78628742 -13.0644263 0 0 Z M-58 3 C-59.68029297 3.54333984 -59.68029297 3.54333984 -61.39453125 4.09765625 C-86.78470159 12.98270993 -107.69232688 33.82310667 -122 56 C-122.37511719 56.57202148 -122.75023437 57.14404297 -123.13671875 57.73339844 C-150.11170371 99.18557242 -157.15106512 153.99256651 -148 202 C-139.13497165 243.01359742 -119.60430938 284.90440088 -83.375 308.625 C-60.19805839 323.19061939 -35.01499787 329.35443659 -7.66699219 323.81518555 C-0.14348097 322.01809627 7.04089237 319.3663976 14 316 C15.03382813 315.50886719 16.06765625 315.01773437 17.1328125 314.51171875 C51.126309 297.35114642 72.84513628 263.63466649 84.6875 228.5 C85.8254447 225.01001163 86.92533751 221.50995815 88 218 C88.21285645 217.30970703 88.42571289 216.61941406 88.64501953 215.90820312 C100.53690092 176.3021062 98.08855507 128.395103 83 90 C82.70150146 89.23864746 82.40300293 88.47729492 82.09545898 87.69287109 C67.63487126 51.40861902 43.99150425 21.56174719 8 5 C-12.28432285 -3.38569771 -37.27430654 -4.20790936 -58 3 Z " fill="#202122" transform="translate(428,238)"/>
<path d="M0 0 C2.05771065 -0.36914349 2.05771065 -0.36914349 4.64431763 -0.36076355 C5.62310883 -0.36488754 6.60190002 -0.36901154 7.61035156 -0.3732605 C9.22659424 -0.35708176 9.22659424 -0.35708176 10.87548828 -0.34057617 C12.00719452 -0.34101425 13.13890076 -0.34145233 14.30490112 -0.34190369 C18.06021139 -0.33980713 21.81507985 -0.31643473 25.5703125 -0.29296875 C28.16820024 -0.28737589 30.76609113 -0.28310433 33.36398315 -0.28010559 C39.51221268 -0.26980626 45.6602588 -0.24614197 51.80841911 -0.21605712 C58.80710061 -0.1825521 65.80578963 -0.16603695 72.80453134 -0.15097082 C87.20310905 -0.11959334 101.60154314 -0.0662059 116 0 C117.32 3.3 118.64 6.6 120 10 C116 8 116 8 115 5 C112.08274166 4.02758055 110.11196561 3.84832181 107.06958008 3.79467773 C105.56836357 3.7647599 105.56836357 3.7647599 104.03681946 3.73423767 C102.95861435 3.71752518 101.88040924 3.70081268 100.76953125 3.68359375 C99.11119514 3.6524221 99.11119514 3.6524221 97.4193573 3.62062073 C93.8838021 3.55517668 90.34817194 3.49626397 86.8125 3.4375 C84.41730992 3.3943099 82.02212745 3.35069546 79.62695312 3.30664062 C73.75138158 3.19950052 67.87573528 3.09772443 62 3 C62.03715555 20.01134179 62.09699962 37.02243163 62.18390274 54.03358841 C62.22372305 61.93206374 62.25610026 69.830439 62.27099609 77.72900391 C62.2839972 84.61289348 62.31092209 91.49656315 62.35461307 98.38032889 C62.37726296 102.02575554 62.3929086 105.67091062 62.39188385 109.31641388 C62.391001 113.38475731 62.42120179 117.45229734 62.45410156 121.52050781 C62.4490712 122.73107346 62.44404083 123.9416391 62.43885803 125.18888855 C62.45277084 126.29664139 62.46668365 127.40439423 62.48101807 128.54571533 C62.48470524 129.50806721 62.48839241 130.47041908 62.49219131 131.46193314 C62.87992628 134.61944445 62.87992628 134.61944445 67 138 C61.39 138 55.78 138 50 138 C51.485 135.525 51.485 135.525 53 133 C53.4519593 130.32321744 53.4519593 130.32321744 53.39872742 127.46342468 C53.41126556 126.36271133 53.42380371 125.26199799 53.4367218 124.12792969 C53.43528671 122.93031006 53.43385162 121.73269043 53.43237305 120.4987793 C53.4425647 119.23008499 53.45275635 117.96139069 53.46325684 116.6542511 C53.49080287 113.1835606 53.50010801 109.71303394 53.50611091 106.2422483 C53.51550089 102.61201995 53.54170475 98.98191368 53.56611633 95.35176086 C53.60976795 88.48125396 53.63832307 81.61077077 53.66143972 74.74016744 C53.6884986 66.91667178 53.73240966 59.09329902 53.77772844 51.26989114 C53.87055552 35.17998974 53.94224506 19.09006632 54 3 C47.16755824 2.99088115 40.33648798 3.02840231 33.50439453 3.09765625 C31.18251304 3.1157732 28.86052408 3.12339261 26.53857422 3.12011719 C23.19154412 3.11724789 19.8467231 3.15269245 16.5 3.1953125 C14.95421265 3.1816716 14.95421265 3.1816716 13.37719727 3.16775513 C6.21511884 3.31069948 2.19039307 5.04678586 -3 10 C-2.25 3.375 -2.25 3.375 0 0 Z " fill="#0E0F10" transform="translate(342,343)"/>
<path d="M0 0 C1.26360352 -0.01160156 1.26360352 -0.01160156 2.55273438 -0.0234375 C19.59846962 0.02905129 33.44684372 7.36753824 46.0625 18.25 C46.86300781 18.93707031 47.66351563 19.62414062 48.48828125 20.33203125 C59.93295673 30.96358592 67.73744646 45.13593395 74.0625 59.25 C74.53300781 60.2915625 75.00351562 61.333125 75.48828125 62.40625 C78.22634836 68.98439265 80.06518495 75.71756858 81.75 82.625 C81.95262451 83.4502417 82.15524902 84.2754834 82.36401367 85.12573242 C85.3996922 98.21195111 86.47358597 111.23423974 86.4375 124.625 C86.43728851 125.35757019 86.43707703 126.09014038 86.43685913 126.84490967 C86.38146202 146.23810061 83.80824847 164.99911201 77.0625 183.25 C76.83836426 183.87519531 76.61422852 184.50039063 76.38330078 185.14453125 C67.18742643 210.63598817 51.02573654 232.30083254 27.0625 245.625 C12.96757393 251.97354108 -5.52837767 252.82979643 -20.05859375 247.50390625 C-29.53472137 243.37658337 -37.19915072 238.10014252 -44.9375 231.25 C-45.55109375 230.72019531 -46.1646875 230.19039062 -46.796875 229.64453125 C-65.7064834 212.13063204 -75.7017 185.9113768 -80.9375 161.25 C-81.08848145 160.5885498 -81.23946289 159.92709961 -81.39501953 159.24560547 C-89.85532447 121.28831503 -84.06540559 75.78937211 -63.57299805 42.52075195 C-51.32524408 23.42099717 -34.99873717 6.09781269 -12.15698242 0.64038086 C-8.11339367 -0.07083885 -4.09472677 -0.03742325 0 0 Z M-43.9375 21.25 C-44.84435547 22.02923828 -44.84435547 22.02923828 -45.76953125 22.82421875 C-59.4566287 35.54969343 -68.36315193 53.7153649 -73.9375 71.25 C-74.36482422 72.57451172 -74.36482422 72.57451172 -74.80078125 73.92578125 C-80.00795016 90.66883205 -82.3797994 106.89231921 -82.375 124.375 C-82.3760675 125.2043808 -82.37713501 126.0337616 -82.37823486 126.88827515 C-82.33907276 148.08794463 -79.3260342 168.64131809 -70.9375 188.25 C-70.63972656 188.95801758 -70.34195312 189.66603516 -70.03515625 190.39550781 C-63.8944229 204.78546283 -55.96329991 217.03110377 -44.9375 228.25 C-44.25300781 228.94738281 -43.56851563 229.64476562 -42.86328125 230.36328125 C-30.05900487 242.552195 -14.21018899 248.92737863 3.44677734 248.72314453 C22.82459431 247.95664974 38.86983473 237.09814772 51.98046875 223.57421875 C63.00136452 211.27134261 70.54103688 195.69310762 76.0625 180.25 C76.42988281 179.25355469 76.79726563 178.25710938 77.17578125 177.23046875 C78.29655275 173.9287365 79.2092186 170.63139198 80.0625 167.25 C80.24586914 166.52570801 80.42923828 165.80141602 80.61816406 165.05517578 C83.83142171 151.72097208 84.46065423 138.52448116 84.5 124.875 C84.50608276 124.07828888 84.51216553 123.28157776 84.51843262 122.46072388 C84.57528933 111.07751174 83.38504984 100.38726655 81.0625 89.25 C80.69753418 87.45248291 80.69753418 87.45248291 80.32519531 85.61865234 C74.36386955 57.04902143 59.20612864 29.31761265 35.0625 12.25 C7.1443698 -4.57582612 -20.00470282 0.64910328 -43.9375 21.25 Z " fill="#252628" transform="translate(398.9375,274.75)"/>
<path d="M0 0 C1.04607422 0.00128906 2.09214844 0.00257813 3.16992188 0.00390625 C11.19394024 0.10315199 18.52617021 1.02798696 26.25 3.3125 C25.59 3.9725 24.93 4.6325 24.25 5.3125 C22.11206055 5.30004883 22.11206055 5.30004883 19.44921875 4.95703125 C2.94287506 3.14270427 -13.94174527 2.81476033 -29.75 8.3125 C-31.43029297 8.85583984 -31.43029297 8.85583984 -33.14453125 9.41015625 C-58.24538532 18.19396639 -78.55332996 38.41906203 -92.75 60.3125 C-93.12656738 60.88597168 -93.50313477 61.45944336 -93.89111328 62.05029297 C-110.44902746 87.49845727 -117.88225859 116.59161418 -121.35571289 146.42016602 C-121.50903076 147.68401123 -121.66234863 148.94785645 -121.8203125 150.25 C-121.95195801 151.39339844 -122.08360352 152.53679687 -122.21923828 153.71484375 C-122.39438965 154.57207031 -122.56954102 155.42929687 -122.75 156.3125 C-123.41 156.6425 -124.07 156.9725 -124.75 157.3125 C-123.36198654 114.14049519 -109.47708985 70.4913086 -79.75 38.3125 C-79.28368164 37.80235352 -78.81736328 37.29220703 -78.33691406 36.76660156 C-58.06645694 14.826649 -30.32127761 -0.15559347 0 0 Z " fill="#232425" transform="translate(399.75,233.6875)"/>
<path d="M0 0 C2.25615763 3.38423645 3.35771505 6.8047539 4.625 10.625 C11.12448753 29.48181277 19.9106009 45.65627961 34 60 C34.61101562 60.62390625 35.22203125 61.2478125 35.8515625 61.890625 C48.33986725 73.68808736 64.31509004 79.67057993 81.38427734 79.47314453 C100.24269293 78.7271948 116.35332682 68.34920341 129.140625 55.1015625 C140.08726434 42.72910039 147.29896421 27.34606684 153 12 C153.66167023 10.33134343 154.32631608 8.6638426 155 7 C155.33 7 155.66 7 156 7 C153.90280667 28.93616013 138.47393429 51.88318524 122 66 C105.22496407 78.74654824 89.25098008 83.93597189 68 82 C54.23316772 79.48531547 43.30995112 72.12657623 33 63 C32.38640625 62.47019531 31.7728125 61.94039063 31.140625 61.39453125 C16.26768228 47.61935335 2.45010864 23.85266328 0.125 3.5 C0.08375 2.345 0.0425 1.19 0 0 Z " fill="#1E2021" transform="translate(321,443)"/>
<path d="M0 0 C18.38999869 1.28302316 34.92430241 13.95300658 48 26 C48.50096191 26.45181641 49.00192383 26.90363281 49.51806641 27.36914062 C62.36962461 39.05465501 71.77025125 53.09206853 79.875 68.375 C80.40544922 69.36798096 80.93589844 70.36096191 81.48242188 71.3840332 C82.19881836 72.78335083 82.19881836 72.78335083 82.9296875 74.2109375 C83.56753174 75.45302979 83.56753174 75.45302979 84.21826172 76.72021484 C85.10088893 79.29422261 84.93112519 80.48401162 84 83 C83.62415771 82.26233398 83.62415771 82.26233398 83.24072266 81.50976562 C74.37549956 64.18941139 65.23626915 48.35176648 52 34 C51.31292969 33.24203125 50.62585938 32.4840625 49.91796875 31.703125 C36.57046602 17.65312213 18.72983101 7.00957556 0 2 C0 1.34 0 0.68 0 0 Z " fill="#1E1F20" transform="translate(424,238)"/>
<path d="M0 0 C7.81915832 8.96046404 11.18028288 23.50704149 13.875 34.8125 C14.16093018 36.00830688 14.16093018 36.00830688 14.45263672 37.22827148 C17.34961284 50.20174329 18.40734011 63.12122969 18.375 76.375 C18.37567978 77.47086426 18.37567978 77.47086426 18.37637329 78.58886719 C18.34522201 95.8349668 16.29645653 112.53701503 11 129 C8.95556641 125.30224609 8.95556641 125.30224609 9.35546875 122.58203125 C9.63003906 121.66808594 9.90460938 120.75414062 10.1875 119.8125 C13.92141553 106.35427119 15.50112182 93.35043064 15.39111328 79.41601562 C15.37500486 77.00072819 15.39108858 74.58711302 15.41015625 72.171875 C15.42384929 61.48391535 14.19315679 51.4498686 12 41 C11.75636719 39.80173584 11.51273437 38.60347168 11.26171875 37.36889648 C8.86388852 25.85875974 4.60225835 15.03739296 -0.1796875 4.328125 C-0.45039063 3.55984375 -0.72109375 2.7915625 -1 2 C-0.67 1.34 -0.34 0.68 0 0 Z " fill="#232426" transform="translate(467,323)"/>
<path d="M0 0 C2.09375 0.69921875 2.09375 0.69921875 4.65625 2.76171875 C6.64225235 6.82007138 6.60171183 9.20012822 6.09375 13.69921875 C5.09375 15.69921875 5.09375 15.69921875 3.09375 16.69921875 C-1.50469133 17.30229302 -4.53474401 17.42446951 -8.34375 14.63671875 C-11.41293061 11.11838976 -12.15581143 9.35769869 -11.90625 4.69921875 C-8.6970615 -0.43548285 -5.62077647 -1.02110773 0 0 Z " fill="#F7F7F7" transform="translate(359.90625,524.30078125)"/>
<path d="M0 0 C3.71342161 1.29582942 6.10683834 2.80187356 9 5.4375 C21.03322636 15.27632633 35.78203227 22.05838253 51 25 C52.15592651 25.25910156 52.15592651 25.25910156 53.33520508 25.5234375 C56.15314567 26.02738803 58.80683231 26.15894719 61.66796875 26.2109375 C63.25448242 26.25347656 63.25448242 26.25347656 64.87304688 26.296875 C67.0942252 26.34923041 69.31561016 26.39341813 71.53710938 26.4296875 C72.59091797 26.460625 73.64472656 26.4915625 74.73046875 26.5234375 C75.69364014 26.54325684 76.65681152 26.56307617 77.64916992 26.58349609 C78.42494385 26.72094238 79.20071777 26.85838867 80 27 C80.99 28.485 80.99 28.485 82 30 C51.59168699 30.99837876 24.37947734 24.16780727 1.1875 3.375 C0 2 0 2 0 0 Z " fill="#1A1B1C" transform="translate(330,536)"/>
<path d="M0 0 C0.71140137 0.00950684 1.42280273 0.01901367 2.15576172 0.02880859 C3.24993408 0.04113525 3.24993408 0.04113525 4.36621094 0.05371094 C20.937746 0.39702855 34.29484712 7.67000445 46.59326172 18.27880859 C47.39376953 18.96587891 48.19427734 19.65294922 49.01904297 20.36083984 C56.61477529 27.4169109 64.66105276 37.56003099 68.59326172 47.27880859 C68.26326172 48.26880859 67.93326172 49.25880859 67.59326172 50.27880859 C67.13439575 49.55516113 67.13439575 49.55516113 66.66625977 48.81689453 C53.34261081 27.94954487 38.90637874 11.35893197 14.33154297 4.06005859 C7.16924072 2.56323472 -0.10992907 2.4425978 -7.40673828 2.27880859 C-4.91352287 -0.21440682 -3.40631495 0.02214556 0 0 Z " fill="#212223" transform="translate(398.40673828125,274.72119140625)"/>
<path d="M0 0 C-6.98155586 16.97240304 -31.11981761 28.60355995 -46.96484375 35.2421875 C-55.14045201 38.3840061 -63.21443714 40.38198099 -72 40 C-71 38 -71 38 -69.2409668 37.39331055 C-68.48468994 37.22613525 -67.72841309 37.05895996 -66.94921875 36.88671875 C-65.69250366 36.59692139 -65.69250366 36.59692139 -64.41040039 36.30126953 C-63.0625647 35.99745361 -63.0625647 35.99745361 -61.6875 35.6875 C-53.74860632 33.79258545 -46.35806095 31.6014138 -39 28 C-37.97003906 27.51015625 -36.94007813 27.0203125 -35.87890625 26.515625 C-23.56956522 20.30923456 -13.29021541 11.80729886 -3.890625 1.80078125 C-2 0 -2 0 0 0 Z " fill="#171819" transform="translate(481,525)"/>
<path d="M0 0 C1.9375 1.0625 1.9375 1.0625 3 3 C3.49125459 6.85985753 3.56021138 9.08965651 1.5 12.4375 C-2.20823701 14.75514813 -4.66420994 14.41959259 -9 14 C-11 12 -11 12 -11.375 8.125 C-11.28294676 5.14680696 -11.06485821 4.10377314 -9.4375 1.5 C-6.08965651 -0.56021138 -3.85985753 -0.49125459 0 0 Z " fill="#FCFCFC" transform="translate(458,517)"/>
<path d="M0 0 C1.04607422 0.00128906 2.09214844 0.00257813 3.16992188 0.00390625 C11.19394024 0.10315199 18.52617021 1.02798696 26.25 3.3125 C25.59 3.9725 24.93 4.6325 24.25 5.3125 C22.11206055 5.30004883 22.11206055 5.30004883 19.44921875 4.95703125 C2.82997777 3.13029494 -13.78838482 3.03435633 -29.75 8.3125 C-31.07983985 8.65950845 -32.41160754 9.00009881 -33.75 9.3125 C-34.08 8.3225 -34.41 7.3325 -34.75 6.3125 C-32.79379422 5.68087243 -30.83488929 5.05760354 -28.875 4.4375 C-27.78445313 4.08945313 -26.69390625 3.74140625 -25.5703125 3.3828125 C-16.96608031 0.97221984 -8.9395409 -0.04587321 0 0 Z " fill="#28292B" transform="translate(399.75,233.6875)"/>
<path d="M0 0 C14.32278341 16.35678815 14.96187797 49.70921205 16 70 C15.34 70 14.68 70 14 70 C13.87471924 69.03924561 13.74943848 68.07849121 13.62036133 67.08862305 C9.95457287 37.9560053 9.95457287 37.9560053 1.6887207 9.8659668 C0.6146136 6.95586379 -0.18936784 3.99310335 -1 1 C-0.67 0.67 -0.34 0.34 0 0 Z " fill="#1F2122" transform="translate(509,320)"/>
<path d="M0 0 C0 0.66 0 1.32 0 2 C-1.48886719 2.69222656 -1.48886719 2.69222656 -3.0078125 3.3984375 C-16.9087693 10.00948996 -28.44165302 18.14468704 -39.57421875 28.75 C-42 31 -42 31 -45 33 C-45 28.8222132 -43.36007434 27.92682845 -40.4375 25 C-30.94222525 15.67972456 -14.04525322 0 0 0 Z " fill="#1F2121" transform="translate(366,241)"/>
<path d="M0 0 C0.99 0.33 1.98 0.66 3 1 C2.5153125 1.72960937 2.030625 2.45921875 1.53125 3.2109375 C-7.03295025 16.55132635 -13.20824789 30.59351249 -17 46 C-17.22429687 46.87140625 -17.44859375 47.7428125 -17.6796875 48.640625 C-18.13471623 50.42334032 -18.57062389 52.21093287 -19 54 C-21 51 -21 51 -20.375 47.125 C-19.93628389 45.41152388 -19.47581017 43.70354833 -19 42 C-18.74089844 41.03707031 -18.48179687 40.07414062 -18.21484375 39.08203125 C-14.15790107 24.94420071 -8.07685746 12.25164872 0 0 Z " fill="#2B2C2C" transform="translate(340,310)"/>
<path d="M0 0 C0.99 0 1.98 0 3 0 C2.73445313 1.17175781 2.46890625 2.34351563 2.1953125 3.55078125 C-0.12283363 13.83268635 -2.40647355 24.05463961 -3.71484375 34.5234375 C-3.84431396 35.52342773 -3.97378418 36.52341797 -4.10717773 37.55371094 C-4.36691732 39.58449028 -4.61788434 41.61641291 -4.85961914 43.64941406 C-4.97813232 44.58237305 -5.09664551 45.51533203 -5.21875 46.4765625 C-5.32123047 47.32299316 -5.42371094 48.16942383 -5.52929688 49.04150391 C-5.68462891 49.68780762 -5.83996094 50.33411133 -6 51 C-6.99 51.495 -6.99 51.495 -8 52 C-7.42317295 34.05868974 -5.01104595 17.24613784 0 0 Z " fill="#3D3E3F" transform="translate(283,339)"/>
<path d="M0 0 C4.17149781 1.39049927 5.15033294 4.2910941 7.1875 7.9375 C12.72913821 17.4963739 19.45250979 25.54814465 26.921875 33.67578125 C29.04370878 36.04888482 31.03339821 38.49745493 33 41 C29.38591397 41 28.5291042 39.93736157 26.02807617 37.49609375 C25.52381104 36.98175781 25.0195459 36.46742188 24.5 35.9375 C23.97317627 35.40382813 23.44635254 34.87015625 22.90356445 34.3203125 C0 10.50306932 0 10.50306932 0 0 Z " fill="#1D1E1F" transform="translate(298,495)"/>
<path d="M0 0 C2.14591158 2.68656883 3.6560092 5.19202288 4.9375 8.37890625 C5.27402588 9.21276855 5.61055176 10.04663086 5.95727539 10.90576172 C6.30137451 11.78248535 6.64547363 12.65920898 7 13.5625 C7.53065063 14.90852295 7.53065063 14.90852295 8.07202148 16.28173828 C15.02843885 34.17706933 15.02843885 34.17706933 13 41 C11.51384069 38.24785312 10.84793037 36.27474483 10.1875 33.125 C8.08700813 23.13125354 3.9693384 13.61995546 -0.1796875 4.328125 C-0.45039063 3.55984375 -0.72109375 2.7915625 -1 2 C-0.67 1.34 -0.34 0.68 0 0 Z " fill="#2E2F30" transform="translate(467,323)"/>
<path d="M0 0 C0.66 0 1.32 0 2 0 C3.00460531 2.12282669 4.00355602 4.24833021 5 6.375 C5.556875 7.55835938 6.11375 8.74171875 6.6875 9.9609375 C8 13 8 13 8 15 C7.34 15 6.68 15 6 15 C5.67 13.35 5.34 11.7 5 10 C3.35232753 10.28109113 1.70686855 10.57518526 0.0625 10.875 C-1.31228516 11.11863281 -1.31228516 11.11863281 -2.71484375 11.3671875 C-3.46894531 11.57601562 -4.22304688 11.78484375 -5 12 C-5.33 12.66 -5.66 13.32 -6 14 C-6.66 13.67 -7.32 13.34 -8 13 C-6.716961 10.82778513 -5.42427887 8.6624676 -4.125 6.5 C-3.76019531 5.87996094 -3.39539063 5.25992188 -3.01953125 4.62109375 C-2.0677482 3.04632542 -1.03889741 1.51870947 0 0 Z " fill="#919291" transform="translate(393,537)"/>
<path d="M0 0 C25.76376337 -0.61916858 25.76376337 -0.61916858 38 3 C36 5 36 5 34.03125 5.01171875 C32.77828125 4.85123047 32.77828125 4.85123047 31.5 4.6875 C26.10648529 4.08261985 20.73031039 3.72172175 15.3125 3.4375 C14.4978125 3.39391357 13.683125 3.35032715 12.84375 3.30541992 C10.89592198 3.20193119 8.94797314 3.10072028 7 3 C7 2.67 7 2.34 7 2 C4.69 1.67 2.38 1.34 0 1 C0 0.67 0 0.34 0 0 Z " fill="#494A4B" transform="translate(388,234)"/>
<path d="M0 0 C0.99 0 1.98 0 3 0 C4.00484204 1.95585325 5.00373805 3.91476237 6 5.875 C6.556875 6.96554687 7.11375 8.05609375 7.6875 9.1796875 C9 12 9 12 9 14 C8.34 14 7.68 14 7 14 C7 13.34 7 12.68 7 12 C5.35 12 3.7 12 2 12 C2 12.99 2 13.98 2 15 C1.34 15 0.68 15 0 15 C0 10.05 0 5.1 0 0 Z " fill="#2B2C2D" transform="translate(374,250)"/>
<path d="M0 0 C0.66 0 1.32 0 2 0 C2.84026396 1.76755526 3.67198722 3.53917263 4.5 5.3125 C4.9640625 6.29863281 5.428125 7.28476562 5.90625 8.30078125 C7 11 7 11 7 14 C4 14 4 14 2.61328125 12.6875 C1.40885417 11.125 0.20442708 9.5625 -1 8 C-0.34 10.64 0.32 13.28 1 16 C0.34 16 -0.32 16 -1 16 C-1.86604534 14.23494565 -2.71748642 12.46271926 -3.5625 10.6875 C-4.03816406 9.70136719 -4.51382812 8.71523438 -5.00390625 7.69921875 C-6 5 -6 5 -5 2 C-2.69 3.98 -0.38 5.96 2 8 C1.34 5.36 0.68 2.72 0 0 Z " fill="#1A1B1C" transform="translate(365,253)"/>
<path d="M0 0 C0.99 0.33 1.98 0.66 3 1 C3.33820166 2.5823006 3.67035939 4.16589375 4 5.75 C4.185625 6.63171875 4.37125 7.5134375 4.5625 8.421875 C5 11 5 11 5 15 C4.34 15 3.68 15 3 15 C3 14.01 3 13.02 3 12 C1.68 12 0.36 12 -1 12 C-1.33 12.99 -1.66 13.98 -2 15 C-2.66 15 -3.32 15 -4 15 C-3.52396226 12.87429688 -3.04407402 10.74945573 -2.5625 8.625 C-2.29566406 7.44164062 -2.02882813 6.25828125 -1.75390625 5.0390625 C-1 2 -1 2 0 0 Z " fill="#8F9090" transform="translate(410,248)"/>
<path d="M0 0 C0.66 0 1.32 0 2 0 C1.67 2.97 1.34 5.94 1 9 C1.928125 7.515 1.928125 7.515 2.875 6 C3.57625 5.01 4.2775 4.02 5 3 C5.66 3 6.32 3 7 3 C5.42903279 8.02709507 2.38006951 12.02866469 -1 16 C-1.33 16 -1.66 16 -2 16 C-2 13.03 -2 10.06 -2 7 C-3.65 8.65 -5.3 10.3 -7 12 C-5.45052978 7.60983438 -3.33033996 3.33033996 0 0 Z " fill="#1C1E1E" transform="translate(450,260)"/>
<path d="M0 0 C0.66 0 1.32 0 2 0 C0.59753509 4.15517528 -1.38522823 6.88911481 -4.25 10.1875 C-8.44256346 15.17251892 -11.85139063 20.30780817 -15 26 C-15.66 25.67 -16.32 25.34 -17 25 C-15.51960287 20.76354439 -13.32245551 17.26482461 -10.75 13.625 C-10.15046509 12.76998901 -10.15046509 12.76998901 -9.53881836 11.89770508 C-6.56695888 7.70364972 -3.54723111 3.72026677 0 0 Z " fill="#272929" transform="translate(319,273)"/>
<path d="M0 0 C-1.76429199 4.97209562 -4.3939166 9.43438061 -7 14 C-7.66 13.34 -8.32 12.68 -9 12 C-9 11.01 -9 10.02 -9 9 C-10.65 8.67 -12.3 8.34 -14 8 C-10.30915494 3.86625354 -5.74086742 0 0 0 Z " fill="#272828" transform="translate(465,270)"/>
<path d="M0 0 C0.99 0 1.98 0 3 0 C2.71848084 2.12636813 2.42446737 4.25108528 2.125 6.375 C1.96257812 7.55835938 1.80015625 8.74171875 1.6328125 9.9609375 C1 13 1 13 -1 15 C-1.33 14.01 -1.66 13.02 -2 12 C-4.94729537 10.84188612 -4.94729537 10.84188612 -8 11 C-6.74131097 9.15830774 -5.46766474 7.32682969 -4.1875 5.5 C-3.47980469 4.4790625 -2.77210938 3.458125 -2.04296875 2.40625 C-1.36878906 1.6121875 -0.69460938 0.818125 0 0 Z " fill="#696A6B" transform="translate(440,255)"/>
<path d="M0 0 C3.79152334 -0.0867982 7.58279296 -0.14032207 11.375 -0.1875 C12.99535156 -0.22520508 12.99535156 -0.22520508 14.6484375 -0.26367188 C15.6796875 -0.27333984 16.7109375 -0.28300781 17.7734375 -0.29296875 C18.72653809 -0.3086792 19.67963867 -0.32438965 20.66162109 -0.34057617 C21.81911865 -0.17199097 21.81911865 -0.17199097 23 0 C23.66 0.99 24.32 1.98 25 3 C17.08 3 9.16 3 1 3 C0.67 2.01 0.34 1.02 0 0 Z " fill="#414243" transform="translate(387,563)"/>
<path d="M0 0 C0.66 0 1.32 0 2 0 C3.8785366 10.32283217 4.55362542 20.53369067 5 31 C4.34 31 3.68 31 3 31 C2.48967332 27.52226842 1.99366732 24.04263225 1.5 20.5625 C1.35691406 19.58861328 1.21382812 18.61472656 1.06640625 17.61132812 C0.23231939 11.67342403 -0.14880874 5.99575234 0 0 Z " fill="#2A2B2D" transform="translate(520,359)"/>
<path d="M0 0 C0.99 0.33 1.98 0.66 3 1 C-4.20804949 7.46238919 -12.50656361 11.44369895 -22 13 C-21.67 12.01 -21.34 11.02 -21 10 C-18.60333999 8.89180332 -16.28992527 7.94779794 -13.8125 7.0625 C-9.74413857 5.58995162 -6.30106413 4.2055787 -2.69921875 1.74609375 C-1.80847656 1.16988281 -0.91773438 0.59367187 0 0 Z " fill="#2A2C2C" transform="translate(435,511)"/>
<path d="M0 0 C4.14977361 1.59606677 7.35021968 4.47846785 10 8 C10.4375 10.8125 10.4375 10.8125 10 13 C9 14 9 14 6.70703125 14.2734375 C3.33063636 13.93238751 2.15694329 12.90377064 -0.3125 10.625 C-1.00988281 9.99851562 -1.70726562 9.37203125 -2.42578125 8.7265625 C-4 7 -4 7 -4 5 C-0.05860922 6.66751148 2.7892812 9.22710649 6 12 C6.33 11.01 6.66 10.02 7 9 C6.4946875 8.51789063 5.989375 8.03578125 5.46875 7.5390625 C4.8190625 6.90742188 4.169375 6.27578125 3.5 5.625 C2.8503125 4.99851562 2.200625 4.37203125 1.53125 3.7265625 C0 2 0 2 0 0 Z " fill="#2F3031" transform="translate(336,271)"/>
<path d="M0 0 C0.33 0.99 0.66 1.98 1 3 C0.28714844 3.56847656 -0.42570312 4.13695312 -1.16015625 4.72265625 C-6.74442035 9.22464036 -12.07888202 13.77656078 -17 19 C-17.66 18.34 -18.32 17.68 -19 17 C-6.51480638 4.14578588 -6.51480638 4.14578588 0 0 Z " fill="#1D1E1F" transform="translate(339,255)"/>
<path d="M0 0 C-2.31 0.33 -4.62 0.66 -7 1 C-7 2.65 -7 4.3 -7 6 C-3.535 5.505 -3.535 5.505 0 5 C-3 7 -3 7 -6 7 C-5.67 9.31 -5.34 11.62 -5 14 C-1.7 13.34 1.6 12.68 5 12 C5 12.66 5 13.32 5 14 C0.73383684 15.13764351 -2.56486311 16 -7 16 C-7.66 10.72 -8.32 5.44 -9 0 C-3.375 -1.125 -3.375 -1.125 0 0 Z " fill="#616161" transform="translate(422,535)"/>
<path d="M0 0 C1.32 0 2.64 0 4 0 C4 0.66 4 1.32 4 2 C2.68 2 1.36 2 0 2 C1.39655297 5.49873271 2.71260484 6.70891831 6.125 8.25 C6.84945313 8.58515625 7.57390625 8.9203125 8.3203125 9.265625 C8.87460937 9.50796875 9.42890625 9.7503125 10 10 C9.67 8.35 9.34 6.7 9 5 C9.99 5 10.98 5 12 5 C12.125 7.375 12.125 7.375 12 10 C11.34 10.66 10.68 11.32 10 12 C5.05971108 11.85884889 1.7372288 8.9187003 -2 6 C-1.125 1.125 -1.125 1.125 0 0 Z " fill="#262728" transform="translate(327,283)"/>
<path d="M0 0 C3.41877046 5.30101488 1.21487682 11.19116276 0 17 C-0.88774157 20.37513343 -1.88082633 23.6947071 -3 27 C-4.625282 24.50907867 -5.05355059 23.36039547 -4.609375 20.37109375 C-4.32578125 19.40300781 -4.0421875 18.43492187 -3.75 17.4375 C-2.15195525 11.66323163 -0.98823239 5.90614182 0 0 Z " fill="#3F4041" transform="translate(481,425)"/>
<path d="M0 0 C-2 2 -2 2 -5 3 C-4.21654285 4.17219543 -3.42297164 5.33763668 -2.625 6.5 C-2.18414062 7.1496875 -1.74328125 7.799375 -1.2890625 8.46875 C-0.86367188 8.9740625 -0.43828125 9.479375 0 10 C0.66 10 1.32 10 2 10 C2.33 8.68 2.66 7.36 3 6 C3.66 6 4.32 6 5 6 C4.125 10.875 4.125 10.875 3 12 C0.6484375 12.296875 0.6484375 12.296875 -2 12 C-3.8359375 10.390625 -3.8359375 10.390625 -5.375 8.25 C-5.89835937 7.55390625 -6.42171875 6.8578125 -6.9609375 6.140625 C-8 4 -8 4 -7.7890625 1.796875 C-6.11072443 -2.02508298 -3.44770448 -0.81656159 0 0 Z " fill="#28292A" transform="translate(350,265)"/>
<path d="M0 0 C0.33 0 0.66 0 1 0 C0.88545196 2.87575868 0.7587153 5.75012112 0.625 8.625 C0.5940625 9.43324219 0.563125 10.24148438 0.53125 11.07421875 C0.3047054 15.71838314 -0.2592668 19.62693856 -2 24 C-2.33 24 -2.66 24 -3 24 C-2.88576707 20.93675381 -2.75902148 17.87489086 -2.625 14.8125 C-2.57859375 13.51602539 -2.57859375 13.51602539 -2.53125 12.19335938 C-2.32654611 7.74104978 -2.06277067 4.05007413 0 0 Z " fill="#252628" transform="translate(278,367)"/>
<path d="M0 0 C1.98 0.495 1.98 0.495 4 1 C4 3.97 4 6.94 4 10 C2.35 10 0.7 10 -1 10 C-1.02689216 8.52093108 -1.04634621 7.04172517 -1.0625 5.5625 C-1.07410156 4.73878906 -1.08570313 3.91507812 -1.09765625 3.06640625 C-1 1 -1 1 0 0 Z " fill="#464748" transform="translate(430,402)"/>
<path d="M0 0 C0.99 0.33 1.98 0.66 3 1 C2.40832031 1.56847656 1.81664062 2.13695312 1.20703125 2.72265625 C-3.4031189 7.22751749 -7.4500345 11.61779425 -11 17 C-11.99 16.67 -12.98 16.34 -14 16 C-9.59802297 10.34669955 -5.19861358 4.9386829 0 0 Z " fill="#202122" transform="translate(355,293)"/>
<path d="M0 0 C2.17362224 3.78407872 3.17797289 7.86876013 4.25 12.0625 C4.44851563 12.78244141 4.64703125 13.50238281 4.8515625 14.24414062 C5.3372393 16.13933596 5.67802899 18.07023784 6 20 C5.34 20.99 4.68 21.98 4 23 C3.13200283 20.10767725 2.2803444 17.21215302 1.4375 14.3125 C1.19064453 13.49587891 0.94378906 12.67925781 0.68945312 11.83789062 C-1.47053761 4.32355667 -1.47053761 4.32355667 0 0 Z " fill="#333435" transform="translate(282,448)"/>
<path d="M0 0 C1.65 0 3.3 0 5 0 C5 2.97 5 5.94 5 9 C3.35 9 1.7 9 0 9 C0 6.03 0 3.06 0 0 Z " fill="#424344" transform="translate(373,403)"/>
<path d="M0 0 C2.61376953 -0.34057617 2.61376953 -0.34057617 5.8828125 -0.29296875 C7.04941406 -0.28330078 8.21601563 -0.27363281 9.41796875 -0.26367188 C10.64128906 -0.23853516 11.86460937 -0.21339844 13.125 -0.1875 C14.35605469 -0.17396484 15.58710938 -0.16042969 16.85546875 -0.14648438 C19.90407843 -0.11103543 22.951825 -0.06162079 26 0 C26 0.33 26 0.66 26 1 C16.76 1.66 7.52 2.32 -2 3 C-1.34 2.01 -0.68 1.02 0 0 Z " fill="#151617" transform="translate(383,235)"/>
<path d="M0 0 C0.66 0 1.32 0 2 0 C2.33 3.3 2.66 6.6 3 10 C3.66 9.67 4.32 9.34 5 9 C3.61410019 12.09162264 2.50816459 13.49183541 0 16 C-0.33 12.04 -0.66 8.08 -1 4 C-1.99 4.495 -1.99 4.495 -3 5 C-1.125 1.125 -1.125 1.125 0 0 Z " fill="#545555" transform="translate(372,532)"/>
<path d="M0 0 C2.64 0 5.28 0 8 0 C8 0.66 8 1.32 8 2 C7.01 2 6.02 2 5 2 C5 6.29 5 10.58 5 15 C4.34 15 3.68 15 3 15 C3 10.71 3 6.42 3 2 C2.01 2 1.02 2 0 2 C0 1.34 0 0.68 0 0 Z " fill="#303133" transform="translate(397,248)"/>
<path d="M0 0 C-3.75 2 -3.75 2 -6 2 C-5.67 6.62 -5.34 11.24 -5 16 C-5.66 16 -6.32 16 -7 16 C-7.33 11.38 -7.66 6.76 -8 2 C-9.98 2 -11.96 2 -14 2 C-14 1.67 -14 1.34 -14 1 C-9.27685687 0.22887459 -4.78478822 -0.09764874 0 0 Z " fill="#5E5E5F" transform="translate(412,536)"/>
<path d="M0 0 C-2.55614243 5.75764755 -7.69017314 10.65677568 -13 14 C-13.66 14 -14.32 14 -15 14 C-13.57390841 10.63797061 -11.85651485 8.76324421 -9.0625 6.4375 C-6.11693957 3.96809867 -6.11693957 3.96809867 -3.37109375 1.28515625 C-2 0 -2 0 0 0 Z " fill="#1B1C1E" transform="translate(452,498)"/>
<path d="M0 0 C0.33 0.66 0.66 1.32 1 2 C-4.76081841 3.2982126 -10.08739655 4.25706972 -16 4 C-15.67 3.34 -15.34 2.68 -15 2 C-12.12890625 1.11328125 -12.12890625 1.11328125 -8.5625 0.3125 C-7.38816406 0.04050781 -6.21382813 -0.23148438 -5.00390625 -0.51171875 C-2 -1 -2 -1 0 0 Z " fill="#27282A" transform="translate(425,561)"/>
<path d="M0 0 C0.62390625 0.19464844 1.2478125 0.38929688 1.890625 0.58984375 C2.220625 1.24984375 2.550625 1.90984375 2.890625 2.58984375 C2.19195312 2.55503906 1.49328125 2.52023437 0.7734375 2.484375 C-0.13664062 2.45730469 -1.04671875 2.43023438 -1.984375 2.40234375 C-2.88929688 2.36753906 -3.79421875 2.33273437 -4.7265625 2.296875 C-5.51289063 2.39355469 -6.29921875 2.49023438 -7.109375 2.58984375 C-9.5388266 6.23402115 -9.27117075 8.30225647 -9.109375 12.58984375 C-9.769375 12.25984375 -10.429375 11.92984375 -11.109375 11.58984375 C-12.046875 8.33984375 -12.046875 8.33984375 -12.109375 4.58984375 C-8.76250536 -0.76514767 -5.75817031 -0.84847211 0 0 Z " fill="#535454" transform="translate(360.109375,524.41015625)"/>
<path d="M0 0 C2 1.625 2 1.625 3 4 C2.6875 7.75 2.6875 7.75 2 11 C1.67 11 1.34 11 1 11 C0.87625 9.88625 0.7525 8.7725 0.625 7.625 C0.3534187 3.96896323 0.3534187 3.96896323 -2 2 C-5.45828022 1.83330682 -5.45828022 1.83330682 -9 2 C-9.99 2 -10.98 2 -12 2 C-7.76015964 -1.21200027 -5.1093911 -1.41927531 0 0 Z " fill="#565756" transform="translate(460,516)"/>
<path d="M0 0 C0.66 0 1.32 0 2 0 C2.19491452 1.45736087 2.38069358 2.91594593 2.5625 4.375 C2.66691406 5.18710937 2.77132813 5.99921875 2.87890625 6.8359375 C3 9 3 9 2 11 C1.34 11 0.68 11 0 11 C0 10.34 0 9.68 0 9 C-0.99 9 -1.98 9 -3 9 C-2.44271087 5.65626525 -1.64826111 2.96687001 0 0 Z " fill="#333435" transform="translate(449,402)"/>
<path d="M0 0 C0.66 0.66 1.32 1.32 2 2 C1.58410304 7.78474859 0.04747183 13.58882446 -2 19 C-4 16 -4 16 -3.3203125 12.20703125 C-2.93495648 10.73869192 -2.53597227 9.27387656 -2.125 7.8125 C-1.92519531 7.06291016 -1.72539063 6.31332031 -1.51953125 5.54101562 C-1.02458964 3.69087675 -0.51379524 1.844992 0 0 Z " fill="#353637" transform="translate(516,452)"/>
<path d="M0 0 C2.0625 0.4375 2.0625 0.4375 4 1 C4 1.66 4 2.32 4 3 C3.01 3.495 3.01 3.495 2 4 C2.66 4.66 3.32 5.32 4 6 C4 7.32 4 8.64 4 10 C2.35 10 0.7 10 -1 10 C-0.814375 9.443125 -0.62875 8.88625 -0.4375 8.3125 C0.07438502 5.60682204 -0.42343384 3.66661851 -1 1 C-0.67 0.67 -0.34 0.34 0 0 Z " fill="#383939" transform="translate(357,402)"/>
<path d="M0 0 C3.47800766 5.21701148 5.21756889 11.4326871 4.6875 17.6875 C4.460625 18.450625 4.23375 19.21375 4 20 C2.48696169 17.20815944 1.57817607 14.66897136 0.9375 11.5625 C0.77507812 10.77875 0.61265625 9.995 0.4453125 9.1875 C0.22488281 8.1046875 0.22488281 8.1046875 0 7 C-0.226875 6.030625 -0.45375 5.06125 -0.6875 4.0625 C-1 2 -1 2 0 0 Z " fill="#3D3E3F" transform="translate(476,344)"/>
<path d="M0 0 C2.67902706 3.57203608 3.90007556 5.78362299 5 10 C4.67 10.66 4.34 11.32 4 12 C3.34 12 2.68 12 2 12 C2 12.99 2 13.98 2 15 C1.34 15 0.68 15 0 15 C0 10.05 0 5.1 0 0 Z " fill="#777878" transform="translate(374,250)"/>
<path d="M0 0 C6.18160604 0.53753096 11.326858 2.54582388 17 5 C17 5.66 17 6.32 17 7 C13.08878502 6.31063929 9.44491404 5.21749819 5.6875 3.9375 C4.61886719 3.57527344 3.55023438 3.21304688 2.44921875 2.83984375 C1.23685547 2.42412109 1.23685547 2.42412109 0 2 C0 1.34 0 0.68 0 0 Z " fill="#121315" transform="translate(424,238)"/>
<path d="M0 0 C0.33 0 0.66 0 1 0 C1.55543644 2.95635524 2.09482498 5.91410732 2.625 8.875 C2.78484375 9.71675781 2.9446875 10.55851562 3.109375 11.42578125 C3.25117188 12.23144531 3.39296875 13.03710938 3.5390625 13.8671875 C3.67521973 14.61081543 3.81137695 15.35444336 3.95166016 16.12060547 C3.9676123 16.74080566 3.98356445 17.36100586 4 18 C3.34 18.66 2.68 19.32 2 20 C-1.62870159 6.3667426 -1.62870159 6.3667426 0 0 Z " fill="#3C3D3E" transform="translate(318,425)"/>
<path d="M0 0 C0.66 0 1.32 0 2 0 C1.85851011 1.6045556 1.71164314 3.20863767 1.5625 4.8125 C1.48128906 5.70582031 1.40007812 6.59914062 1.31640625 7.51953125 C1 10 1 10 0 13 C1.65 13.33 3.3 13.66 5 14 C5 14.33 5 14.66 5 15 C2.69 15 0.38 15 -2 15 C-1.85816304 13.24967156 -1.71136571 11.49974466 -1.5625 9.75 C-1.48128906 8.77546875 -1.40007812 7.8009375 -1.31640625 6.796875 C-1.04925416 4.43538247 -0.64628032 2.28098935 0 0 Z " fill="#2A2C2C" transform="translate(420,249)"/>
<path d="M0 0 C1.98 0.495 1.98 0.495 4 1 C3.45276317 4.37462715 2.9451 6.08235 1 9 C1.99 9 2.98 9 4 9 C4 9.66 4 10.32 4 11 C2.35 11 0.7 11 -1 11 C-0.125 6.25 -0.125 6.25 1 4 C0.34 4 -0.32 4 -1 4 C-0.67 2.68 -0.34 1.36 0 0 Z " fill="#373838" transform="translate(439,402)"/>
<path d="M0 0 C1.65 0 3.3 0 5 0 C5 0.66 5 1.32 5 2 C4.01 2 3.02 2 2 2 C2 2.99 2 3.98 2 5 C2.66 5.33 3.32 5.66 4 6 C3.34 6 2.68 6 2 6 C2 6.99 2 7.98 2 9 C2.99 9 3.98 9 5 9 C5 9.66 5 10.32 5 11 C3.35 11 1.7 11 0 11 C0 7.37 0 3.74 0 0 Z " fill="#3E3F3F" transform="translate(348,402)"/>
<path d="M0 0 C0.66 0 1.32 0 2 0 C2.84026396 1.76755526 3.67198722 3.53917263 4.5 5.3125 C4.9640625 6.29863281 5.428125 7.28476562 5.90625 8.30078125 C7 11 7 11 7 14 C6.01 14 5.02 14 4 14 C2.34103082 11.01385547 1.57352572 8.35922209 1 5 C0.814375 4.071875 0.62875 3.14375 0.4375 2.1875 C0.293125 1.465625 0.14875 0.74375 0 0 Z " fill="#2A2B2C" transform="translate(365,253)"/>
<path d="M0 0 C3.29680965 0.65784963 5.84117922 1.89420573 8.75 3.5625 C9.94882812 4.24505859 9.94882812 4.24505859 11.171875 4.94140625 C11.77515625 5.29074219 12.3784375 5.64007813 13 6 C12.67 6.99 12.34 7.98 12 9 C7.71 6.69 3.42 4.38 -1 2 C-0.67 1.34 -0.34 0.68 0 0 Z " fill="#222323" transform="translate(441,244)"/>
<path d="M0 0 C1.95903745 0.47627975 3.91721097 0.95611423 5.875 1.4375 C6.96554687 1.70433594 8.05609375 1.97117187 9.1796875 2.24609375 C12 3 12 3 14 4 C14 4.66 14 5.32 14 6 C9.03083364 5.48594831 4.70973649 4.76615118 0 3 C0 2.01 0 1.02 0 0 Z " fill="#323334" transform="translate(379,519)"/>
<path d="M0 0 C0.99 0.33 1.98 0.66 3 1 C3.20086443 4.71599191 3.1519437 5.77208445 1 9 C1.66 9 2.32 9 3 9 C3 9.66 3 10.32 3 11 C1.35 11 -0.3 11 -2 11 C-1.46930939 7.17902761 -0.50298434 4.93828597 2 2 C1.34 2 0.68 2 0 2 C0 2.66 0 3.32 0 4 C-0.66 4 -1.32 4 -2 4 C-1.34 2.68 -0.68 1.36 0 0 Z " fill="#3C3D3E" transform="translate(422,402)"/>
<path d="M0 0 C-4.01254885 3.51098025 -8.20983041 5.76537994 -13 8 C-13.33 7.01 -13.66 6.02 -14 5 C-12.23628182 3.96692229 -10.46374967 2.94887951 -8.6875 1.9375 C-7.70136719 1.36902344 -6.71523438 0.80054688 -5.69921875 0.21484375 C-3 -1 -3 -1 0 0 Z " fill="#232425" transform="translate(456,548)"/>
<path d="M0 0 C0.66 0 1.32 0 2 0 C2.66 5.28 3.32 10.56 4 16 C3.01 15.67 2.02 15.34 1 15 C0.92652344 13.93458984 0.92652344 13.93458984 0.8515625 12.84765625 C0.73941406 11.46900391 0.73941406 11.46900391 0.625 10.0625 C0.55539062 9.14597656 0.48578125 8.22945312 0.4140625 7.28515625 C0.27742188 6.53105469 0.14078125 5.77695312 0 5 C-0.66 4.67 -1.32 4.34 -2 4 C-1.34 2.68 -0.68 1.36 0 0 Z " fill="#4C4D4D" transform="translate(380,535)"/>
<path d="M0 0 C0.66 0 1.32 0 2 0 C0.45454854 5.47932789 -2.15543212 10.11429181 -5 15 C-5.66 15 -6.32 15 -7 15 C-5.45454854 9.52067211 -2.84456788 4.88570819 0 0 Z " fill="#151717" transform="translate(301,298)"/>
<path d="M0 0 C-1.47721422 3.45201639 -3.43794001 5.64961936 -6.125 8.25 C-6.84945313 8.95640625 -7.57390625 9.6628125 -8.3203125 10.390625 C-8.87460937 10.92171875 -9.42890625 11.4528125 -10 12 C-10.66 11.34 -11.32 10.68 -12 10 C-10.38113585 8.32737283 -8.7547271 6.66204463 -7.125 5 C-6.22007812 4.071875 -5.31515625 3.14375 -4.3828125 2.1875 C-2 0 -2 0 0 0 Z " fill="#141516" transform="translate(481,525)"/>
<path d="M0 0 C3.16115776 1.36983503 3.9927092 1.9890638 6 5 C5.15695312 4.61521484 5.15695312 4.61521484 4.296875 4.22265625 C1.80181321 3.71259363 1.80181321 3.71259363 -0.359375 5.87109375 C-1.54273438 7.14146484 -1.54273438 7.14146484 -2.75 8.4375 C-3.54921875 9.28183594 -4.3484375 10.12617187 -5.171875 10.99609375 C-5.77515625 11.65738281 -6.3784375 12.31867187 -7 13 C-7 9.22226682 -6.03234717 8.62560662 -3.5 5.9375 C-0.76555163 3.38132165 -0.76555163 3.38132165 0 0 Z " fill="#454546" transform="translate(348,516)"/>
<path d="M0 0 C2.47186455 2.96346786 3.66248361 5.54041689 4.6875 9.25 C4.93886719 10.14203125 5.19023438 11.0340625 5.44921875 11.953125 C5.72185547 12.96632813 5.72185547 12.96632813 6 14 C5.01 14.33 4.02 14.66 3 15 C2.30151736 13.06643218 1.61655186 11.12797702 0.9375 9.1875 C0.55464844 8.10855469 0.17179687 7.02960938 -0.22265625 5.91796875 C-1 3 -1 3 0 0 Z " fill="#323334" transform="translate(509,320)"/>
<path d="M0 0 C1.5 1 1.5 1 3 3 C3.57468388 6.5365162 3.61746122 9.76507757 2 13 C-1.36955699 14.68477849 -4.2640113 14.29650704 -8 14 C-8.66 13.34 -9.32 12.68 -10 12 C-6.7 12 -3.4 12 0 12 C1.0812391 5.93949386 1.0812391 5.93949386 0 0 Z " fill="#444545" transform="translate(363,527)"/>
<path d="M0 0 C0.99 0 1.98 0 3 0 C2.55187982 2.1479894 2.09121652 4.29336561 1.625 6.4375 C1.36976563 7.63246094 1.11453125 8.82742188 0.8515625 10.05859375 C0.57054687 11.02925781 0.28953125 11.99992187 0 13 C-0.99 13.495 -0.99 13.495 -2 14 C-2.21192221 8.80790596 -1.5912689 4.873261 0 0 Z " fill="#323335" transform="translate(283,339)"/>
<path d="M0 0 C3.63 0.66 7.26 1.32 11 2 C11.33 2.99 11.66 3.98 12 5 C7.71 4.34 3.42 3.68 -1 3 C-0.67 2.01 -0.34 1.02 0 0 Z " fill="#2B2C2D" transform="translate(375,560)"/>
<path d="M0 0 C4.13621084 3.3810038 7.81316569 6.66590534 11 11 C8 11 8 11 5.95703125 9.35546875 C5.24933594 8.64003906 4.54164063 7.92460938 3.8125 7.1875 C2.73935547 6.12595703 2.73935547 6.12595703 1.64453125 5.04296875 C0 3 0 3 0 0 Z " fill="#131415" transform="translate(320,525)"/>
<path d="M0 0 C0.66 0 1.32 0 2 0 C1.53198701 4.99213851 -0.91715737 9.12963993 -4 13 C-4.66 13 -5.32 13 -6 13 C-4.31326082 8.50202887 -2.18326108 4.27113698 0 0 Z " fill="#1C1E1E" transform="translate(502,490)"/>
<path d="M0 0 C3.21524305 1.40844718 5.32183868 3.10344786 7.75 5.625 C8.67039062 6.57246094 8.67039062 6.57246094 9.609375 7.5390625 C10.29773438 8.26222656 10.29773438 8.26222656 11 9 C10.34 9.66 9.68 10.32 9 11 C7.49403892 9.54782324 5.99537896 8.08807139 4.5 6.625 C3.6646875 5.81289063 2.829375 5.00078125 1.96875 4.1640625 C0 2 0 2 0 0 Z " fill="#141516" transform="translate(470,264)"/>
<path d="M0 0 C3.78570414 1.26190138 4.21831571 2.54855815 6.1875 5.9375 C6.71730469 6.83339844 7.24710937 7.72929687 7.79296875 8.65234375 C9 11 9 11 9 13 C5.21429586 11.73809862 4.78168429 10.45144185 2.8125 7.0625 C2.28269531 6.16660156 1.75289063 5.27070313 1.20703125 4.34765625 C0 2 0 2 0 0 Z " fill="#2C2D2D" transform="translate(352,259)"/>
<path d="M0 0 C0 3 0 3 -1.3125 4.60546875 C-1.869375 5.12753906 -2.42625 5.64960937 -3 6.1875 C-3.556875 6.71730469 -4.11375 7.24710938 -4.6875 7.79296875 C-5.120625 8.19128906 -5.55375 8.58960938 -6 9 C-6.99 8.67 -7.98 8.34 -9 8 C-6.80528594 3.48864333 -4.58826282 1.93726652 0 0 Z " fill="#B9BABA" transform="translate(371,535)"/>
<path d="M0 0 C0.33 0.99 0.66 1.98 1 3 C1.99 3.33 2.98 3.66 4 4 C4.33 2.68 4.66 1.36 5 0 C5.125 3.375 5.125 3.375 5 7 C4.34 7.66 3.68 8.32 3 9 C2.67 8.01 2.34 7.02 2 6 C-0.94729537 4.84188612 -0.94729537 4.84188612 -4 5 C-2.68 3.35 -1.36 1.7 0 0 Z " fill="#171819" transform="translate(436,261)"/>
<path d="M0 0 C0.66 0 1.32 0 2 0 C1.71572583 1.58467728 1.42225182 3.1677057 1.125 4.75 C0.88136719 6.07257813 0.88136719 6.07257813 0.6328125 7.421875 C0.03203736 9.86947744 -0.77997117 11.80599857 -2 14 C-3.25127906 10.45332822 -2.72285053 8.27746562 -1.5625 4.75 C-1.27503906 3.85796875 -0.98757813 2.9659375 -0.69140625 2.046875 C-0.46324219 1.37140625 -0.23507812 0.6959375 0 0 Z " fill="#2E2F30" transform="translate(431,252)"/>
<path d="M0 0 C3.79598549 1.49128001 5.71720399 3.65733441 8 7 C8 7.99 8 8.98 8 10 C4.69713914 8.89904638 4.21489099 8.3103981 2.3125 5.5625 C1.65701172 4.63630859 1.65701172 4.63630859 0.98828125 3.69140625 C0 2 0 2 0 0 Z " fill="#252628" transform="translate(480,274)"/>
<path d="M0 0 C0.99 0.33 1.98 0.66 3 1 C0.03 3.97 -2.94 6.94 -6 10 C-6.66 9.34 -7.32 8.68 -8 8 C-5.36 5.36 -2.72 2.72 0 0 Z " fill="#131516" transform="translate(328,264)"/>
<path d="M0 0 C4.73327475 2.00253932 8.3936338 5.3936338 12 9 C6.81298543 8.68563548 3.4052641 5.69966733 0 2 C0 1.34 0 0.68 0 0 Z " fill="#212222" transform="translate(332,276)"/>
<path d="M0 0 C-0.66 0 -1.32 0 -2 0 C-2 0.66 -2 1.32 -2 2 C-4.97 2.66 -7.94 3.32 -11 4 C-11.33 3.01 -11.66 2.02 -12 1 C-3.96428571 -1.27678571 -3.96428571 -1.27678571 0 0 Z " fill="#3D3E3F" transform="translate(393,276)"/>
<path d="M0 0 C0.66 0 1.32 0 2 0 C2 0.66 2 1.32 2 2 C3.32 2 4.64 2 6 2 C6.33 1.34 6.66 0.68 7 0 C7.33 1.98 7.66 3.96 8 6 C7.34 6 6.68 6 6 6 C6 5.01 6 4.02 6 3 C4.68 3 3.36 3 2 3 C1.67 3.99 1.34 4.98 1 6 C0.34 6 -0.32 6 -1 6 C-0.67 4.02 -0.34 2.04 0 0 Z " fill="#2D2E2F" transform="translate(407,257)"/>
<path d="M0 0 C0.99 0.33 1.98 0.66 3 1 C0.03 5.95 0.03 5.95 -3 11 C-3.66 10.67 -4.32 10.34 -5 10 C-3.66511872 6.40608886 -2.03977277 3.24509304 0 0 Z " fill="#2C2D2D" transform="translate(465,476)"/>
<path d="M0 0 C-1.61992165 0.86375896 -3.24611861 1.71575854 -4.875 2.5625 C-6.23238281 3.27599609 -6.23238281 3.27599609 -7.6171875 4.00390625 C-8.40351563 4.33261719 -9.18984375 4.66132813 -10 5 C-10.66 4.67 -11.32 4.34 -12 4 C-8.51556551 -0.03460835 -5.13031263 -1.52493369 0 0 Z " fill="#1D1E20" transform="translate(383,279)"/>
<path d="M0 0 C3.59905908 0.55550695 4.99909799 1.74887248 7.25 4.5625 C8.03117187 5.52349609 8.03117187 5.52349609 8.828125 6.50390625 C9.21484375 6.99761719 9.6015625 7.49132812 10 8 C7 8 7 8 5.17578125 6.50390625 C4.56089844 5.86324219 3.94601562 5.22257812 3.3125 4.5625 C2.68988281 3.92441406 2.06726563 3.28632813 1.42578125 2.62890625 C0 1 0 1 0 0 Z " fill="#1B1C1E" transform="translate(442,293)"/>
<path d="M0 0 C5.75 1.875 5.75 1.875 8 3 C7.67 3.99 7.34 4.98 7 6 C4.36 4.68 1.72 3.36 -1 2 C-0.67 1.34 -0.34 0.68 0 0 Z " fill="#2C2D2E" transform="translate(352,551)"/>
<path d="M0 0 C0.66 0.33 1.32 0.66 2 1 C1.2884375 2.0828125 1.2884375 2.0828125 0.5625 3.1875 C-0.94152903 5.89475226 -1.56599182 7.96194275 -2 11 C-2.66 10.34 -3.32 9.68 -4 9 C-4 8.01 -4 7.02 -4 6 C-4.66 5.34 -5.32 4.68 -6 4 C-4.02 2.68 -2.04 1.36 0 0 Z " fill="#848586" transform="translate(460,273)"/>
<path d="M0 0 C0.33 0 0.66 0 1 0 C1.37211538 7.56634615 1.37211538 7.56634615 -0.51171875 9.76171875 C-1.00285156 10.17035156 -1.49398438 10.57898438 -2 11 C-1.85957123 9.35369672 -1.71250671 7.70795821 -1.5625 6.0625 C-1.48128906 5.14597656 -1.40007812 4.22945313 -1.31640625 3.28515625 C-1 1 -1 1 0 0 Z " fill="#2E2F30" transform="translate(278,367)"/>
<path d="M0 0 C0.99 0.33 1.98 0.66 3 1 C3 3.31 3 5.62 3 8 C2.67 7.01 2.34 6.02 2 5 C1.34 5 0.68 5 0 5 C-0.33 5.99 -0.66 6.98 -1 8 C-1.125 2.25 -1.125 2.25 0 0 Z " fill="#292A29" transform="translate(410,248)"/>
<path d="M0 0 C0.33 0 0.66 0 1 0 C0.88601335 1.62580966 0.75844341 3.25067157 0.625 4.875 C0.52058594 6.23238281 0.52058594 6.23238281 0.4140625 7.6171875 C0 10 0 10 -2 12 C-3.12377697 8.69564916 -2.89554742 6.9493138 -1.5625 3.75 C-1.27503906 3.04359375 -0.98757813 2.3371875 -0.69140625 1.609375 C-0.46324219 1.07828125 -0.23507812 0.5471875 0 0 Z " fill="#333535" transform="translate(479,440)"/>
<path d="M0 0 C0.66 0 1.32 0 2 0 C2.33 2.97 2.66 5.94 3 9 C2.01 9 1.02 9 0 9 C0 6.03 0 3.06 0 0 Z " fill="#434345" transform="translate(520,359)"/>
<path d="M0 0 C0.66 0 1.32 0 2 0 C0.73058503 3.91402949 -0.51167694 5.79072873 -4 8 C-4 4.06830895 -2.60580385 2.83572772 0 0 Z " fill="#212224" transform="translate(319,273)"/>
<path d="M0 0 C0.33 0.66 0.66 1.32 1 2 C-1.64 2.66 -4.28 3.32 -7 4 C-7.33 3.01 -7.66 2.02 -8 1 C-2.25 -1.125 -2.25 -1.125 0 0 Z " fill="#393A3B" transform="translate(373,239)"/>
<path d="M0 0 C0.33 0.66 0.66 1.32 1 2 C-1.97 2.66 -4.94 3.32 -8 4 C-7 1 -7 1 -4.5625 -0.25 C-2 -1 -2 -1 0 0 Z " fill="#3C3D3E" transform="translate(421,520)"/>
<path d="M0 0 C-1 3 -1 3 -3.375 4.25 C-6 5 -6 5 -9 4 C-2.39130435 0 -2.39130435 0 0 0 Z " fill="#1B1C1D" transform="translate(429,516)"/>
<path d="M0 0 C3.77545388 1.09068668 6.47043472 1.9083091 9 5 C5.26512223 4.5020163 3.18762365 4.12508244 0 2 C0 1.34 0 0.68 0 0 Z " fill="#1B1C1D" transform="translate(371,516)"/>
<path d="M0 0 C0.99 0 1.98 0 3 0 C2.34 3.3 1.68 6.6 1 10 C-1.56687367 6.1496895 -0.83288724 4.41430237 0 0 Z " fill="#4E4F50" transform="translate(320,354)"/>
<path d="M0 0 C0.66 0 1.32 0 2 0 C2.33 1.65 2.66 3.3 3 5 C2.38125 5.144375 1.7625 5.28875 1.125 5.4375 C-1.03258322 5.93152225 -1.03258322 5.93152225 -3 7 C-1.125 2.25 -1.125 2.25 0 0 Z " fill="#7A7B7B" transform="translate(393,537)"/>
<path d="M0 0 C-1.04874998 2.62187494 -1.64931313 3.79371361 -4.125 5.25 C-4.74375 5.4975 -5.3625 5.745 -6 6 C-6 5.01 -6 4.02 -6 3 C-2.66666667 0 -2.66666667 0 0 0 Z " fill="#202122" transform="translate(470,536)"/>
<path d="M0 0 C0.66 0 1.32 0 2 0 C4.29648649 2.5614657 5 3.47967572 5 7 C2 6 2 6 0 3 C0 2.01 0 1.02 0 0 Z " fill="#272829" transform="translate(307,509)"/>
<path d="M0 0 C1 3 1 3 -0.4375 6.1875 C-1.2109375 7.5796875 -1.2109375 7.5796875 -2 9 C-2.66 9 -3.32 9 -4 9 C-2.94124926 5.59687262 -1.99097846 2.98646769 0 0 Z " fill="#1D1E1F" transform="translate(470,467)"/>
<path d="M0 0 C1.98 0.495 1.98 0.495 4 1 C4 2.32 4 3.64 4 5 C2.35 4.67 0.7 4.34 -1 4 C-0.67 2.68 -0.34 1.36 0 0 Z " fill="#313132" transform="translate(439,402)"/>
<path d="M0 0 C0.66 0 1.32 0 2 0 C0.8141763 3.37503669 -0.27573689 5.64722731 -3 8 C-3.33 7.34 -3.66 6.68 -4 6 C-2.7260411 3.96166576 -1.38938077 1.96147874 0 0 Z " fill="#343535" transform="translate(455,263)"/>
<path d="M0 0 C2.4375 0.8125 2.4375 0.8125 5 2 C5.33 2.99 5.66 3.98 6 5 C4.125 4.75 4.125 4.75 2 4 C0.75 1.9375 0.75 1.9375 0 0 Z " fill="#27282A" transform="translate(330,536)"/>
<path d="M0 0 C0.66 0 1.32 0 2 0 C3.85776765 3.13498292 4.20140476 5.37471432 4 9 C1.49701566 6.06171403 0.53069061 3.82097239 0 0 Z " fill="#222424" transform="translate(472,337)"/>
<path d="M0 0 C0.66 0 1.32 0 2 0 C0.25 5.75 0.25 5.75 -2 8 C-3 5 -3 5 -1.6875 2.3125 C-1.130625 1.549375 -0.57375 0.78625 0 0 Z " fill="#1C1D1E" transform="translate(301,298)"/>
<path d="M0 0 C1.5 1.3125 1.5 1.3125 3 3 C3 3.99 3 4.98 3 6 C2.01 6 1.02 6 0 6 C-0.66 4.68 -1.32 3.36 -2 2 C-1.34 2 -0.68 2 0 2 C0 1.34 0 0.68 0 0 Z " fill="#323333" transform="translate(369,261)"/>
<path d="M0 0 C2.56695636 0.39491636 4.67123994 0.83561997 7 2 C7 2.66 7 3.32 7 4 C3.62537285 3.45276317 1.91765 2.9451 -1 1 C-0.67 0.67 -0.34 0.34 0 0 Z " fill="#18191B" transform="translate(434,241)"/>
</svg>
